<?xml version="1.0" encoding="utf-8"?>
<!-- Generator: Adobe Illustrator 27.0.0, SVG Export Plug-In . SVG Version: 6.00 Build 0)  -->
<svg version="1.1" id="Layer_1" xmlns="http://www.w3.org/2000/svg" xmlns:xlink="http://www.w3.org/1999/xlink" x="0px" y="0px"
	 viewBox="0 0 1000 1000" style="enable-background:new 0 0 1000 1000;" xml:space="preserve">
<style type="text/css">
	.st0{fill:#0080DF;}
	.st1{fill:url(#SVGID_1_);}
	.st2{fill:url(#SVGID_00000078037098674474775100000006917055704528013751_);}
	.st3{fill:url(#SVGID_00000047749863148412244990000002055221718341442733_);}
	.st4{fill:url(#SVGID_00000047781808799545479460000013289993283635606426_);}
	.st5{fill:url(#SVGID_00000108284613334007261800000016332734575479075493_);}
</style>
<g>
	<g>
		<path class="st0" d="M72.3,606.4v13.5h18v8.6h-18v14.1h20.5v8.9H61.6v-53.8h31.2v8.9L72.3,606.4L72.3,606.4z"/>
		<path class="st0" d="M144.8,600.9c4.3,2.1,7.6,5.5,10.1,9.5s3.4,8.9,3.4,14.1s-1.2,10.1-3.4,14.1c-2.4,4-5.5,7-10.1,9.2
			c-4.3,2.1-9.2,3.4-15,3.4h-19v-53.8h19C135.3,597.9,140.5,598.8,144.8,600.9z M142.6,637.6c3.1-3.1,4.6-7.3,4.6-12.8
			s-1.5-10.1-4.6-13.1c-3.1-3.1-7.3-4.6-13.1-4.6h-7.6v35.5h7.6C135,642.5,139.6,640.7,142.6,637.6z"/>
		<path class="st0" d="M185.4,597.9v33.3c0,3.7,0.9,6.4,2.8,8.3c1.8,1.8,4.6,3.1,8,3.1s6.1-0.9,8-3.1c1.8-1.8,2.8-4.6,2.8-8.3v-33.3
			h10.7v33.3c0,4.6-0.9,8.6-3.1,11.6c-1.8,3.1-4.6,5.5-8,7s-7,2.4-11,2.4s-7.6-0.6-11-2.4c-3.4-1.5-5.8-4-7.6-7s-2.8-7-2.8-11.6
			v-33.3H185.4z"/>
		<path class="st0" d="M238,610.4c2.4-4.3,5.5-7.3,9.8-9.8s8.9-3.4,14.1-3.4c6.1,0,11.3,1.5,15.9,4.6s7.6,7.3,9.5,12.8h-12.5
			c-1.2-2.4-3.1-4.6-5.2-5.8s-4.9-1.8-7.6-1.8c-3.1,0-5.8,0.6-8.3,2.1s-4.3,3.7-5.8,6.1c-1.2,2.8-2.1,5.8-2.1,9.5s0.6,6.7,2.1,9.2
			c1.2,2.8,3.4,4.9,5.8,6.1c2.4,1.5,5.2,2.1,8.3,2.1s5.5-0.6,7.6-1.8s4-3.4,5.2-5.8h12.5c-1.8,5.5-4.9,9.8-9.5,12.8
			c-4.6,3.1-9.8,4.6-15.9,4.6c-5.2,0-9.8-1.2-14.1-3.4c-4.3-2.1-7.3-5.5-9.8-9.8s-3.7-8.9-3.7-14.1
			C234.4,619.3,235.6,614.4,238,610.4z"/>
		<path class="st0" d="M337.7,641.3h-21.4l-3.4,10.4h-11.3l19.3-53.8h12.5l19.3,53.8h-11.3L337.7,641.3z M334.7,632.7l-8-22.6
			l-8,22.6H334.7z"/>
		<path class="st0" d="M405,597.9v8.9h-14.4v45h-10.7v-45h-14.4v-8.9H405L405,597.9z"/>
		<path class="st0" d="M431.9,597.9v53.8h-10.7v-53.8H431.9L431.9,597.9z"/>
		<path class="st0" d="M462.2,648.6c-4.3-2.4-7.6-5.5-10.1-9.8c-2.4-4.3-3.7-8.9-3.7-14.1c0-5.2,1.2-10.1,3.7-14.1
			c2.4-4.3,5.8-7.3,10.1-9.8c4.3-2.4,8.9-3.7,13.8-3.7c5.2,0,9.8,1.2,14.1,3.7c4.3,2.4,7.6,5.5,10.1,9.8c2.4,4.3,3.7,8.9,3.7,14.1
			c0,5.2-1.2,10.1-3.7,14.1c-2.4,4.3-5.8,7.3-10.1,9.8c-4.3,2.4-8.9,3.7-13.8,3.7C471,652,466.4,650.8,462.2,648.6z M484.5,640.1
			c2.4-1.5,4.3-3.7,5.8-6.4c1.5-2.8,2.1-5.8,2.1-9.5s-0.6-6.7-2.1-9.5s-3.4-4.9-5.8-6.1c-2.4-1.2-5.5-2.1-8.6-2.1s-6.1,0.6-8.6,2.1
			c-2.4,1.5-4.3,3.4-5.8,6.1c-1.5,2.8-2.1,5.8-2.1,9.5s0.6,6.7,2.1,9.5s3.4,4.9,5.8,6.4s5.5,2.1,8.6,2.1
			C479.3,642.5,482,641.6,484.5,640.1z"/>
		<path class="st0" d="M566.1,651.4h-10.7l-24.5-37v37h-10.7v-53.8H531l24.5,37v-37h10.7v53.8H566.1z"/>
	</g>
	
		<linearGradient id="SVGID_1_" gradientUnits="userSpaceOnUse" x1="46.3" y1="497.7133" x2="746.2" y2="497.7133" gradientTransform="matrix(1 0 0 1 0 2)">
		<stop  offset="0" style="stop-color:#2860D7"/>
		<stop  offset="1" style="stop-color:#52ABF7"/>
	</linearGradient>
	<path class="st1" d="M86.7,567.6c-12.5-5.2-22.3-12.8-29.4-22.9c-7-10.1-11-21.7-11-35.2H94c0.6,9.2,4,16.2,9.8,21.4s13.8,8,23.9,8
		c10.4,0,18.7-2.4,24.5-7.3c5.8-4.9,8.9-11.6,8.9-19.6c0-6.7-1.8-11.9-6.1-16.2c-4-4.3-9.2-7.6-15-10.1c-6.1-2.4-14.4-5.2-25.1-8
		c-14.4-4.3-26-8.3-35.2-12.5s-16.8-10.4-23.2-18.7s-9.8-19.6-9.8-33.6c0-13.1,3.4-24.5,9.8-34.2c6.7-9.8,15.9-17.1,27.5-22.3
		c11.9-5.2,25.4-8,40.7-8c22.9,0,41.3,5.5,55.7,16.5s22.3,26.6,23.5,46.5H155c-0.6-7.6-3.7-14.1-9.8-19s-14.1-7.3-23.9-7.3
		c-8.6,0-15.6,2.1-20.8,6.7s-8,11-8,19.3c0,5.8,1.8,10.7,5.8,14.7s8.9,7,14.7,9.5c5.8,2.4,14.1,5.2,24.5,8.3
		c14.4,4.3,26.3,8.6,35.2,12.8c9.2,4.3,16.8,10.7,23.5,19c6.7,8.6,9.8,19.6,9.8,33.3c0,11.9-3.1,22.9-9.2,33
		c-6.1,10.1-15.3,18.3-26.9,24.2c-11.9,6.1-26,9.2-42.2,9.2C113,575.5,98.9,572.8,86.7,567.6z M474.1,446.5h-28.4v128.7h-19.3
		c-12.2,0-22.3-10.1-22.3-22.3V404.3c0-19.9,5.5-34.6,17.1-44c11.3-9.5,28.4-13.8,51.4-13.1v34.6c-10.1-0.3-16.8,1.5-20.8,4.9
		s-5.8,9.8-5.8,19v6.7h28.4L474.1,446.5L474.1,446.5z M529.1,446.5v78.6c0,5.5,1.2,9.5,4,11.9s7,3.7,13.5,3.7h19v34.6h-25.7
		c-34.6,0-52-16.8-52-50.5V400c0-10.1,8-18,18-18h23.2v30.9h30l13.1,33.6H529.1L529.1,446.5z M746.2,412.9L652.1,637
		c-4,9.2-12.8,15.3-22.9,15.3H602l35.2-81l-65.1-158.4h26.3c11.9,0,22.3,7.3,26.6,18.3l35.2,95.1l37.3-99.1
		c3.1-8.6,11.3-14.4,20.5-14.4h28.2V412.9z M304.4,406.7c-46.5,0-84.1,37.6-84.1,84.1s37.6,84.1,84.1,84.1s84.1-37.6,84.1-84.1
		S350.9,406.7,304.4,406.7z M304.4,533.6c-23.5,0-42.5-19-42.5-42.5s19-42.5,42.5-42.5s42.5,19,42.5,42.5S327.9,533.6,304.4,533.6z"
		/>
	<g>
		
			<linearGradient id="SVGID_00000016796453621067898850000001699923387034045327_" gradientUnits="userSpaceOnUse" x1="922.1979" y1="527.5" x2="929.8293" y2="527.5" gradientTransform="matrix(1 0 0 -1 0 1000)">
			<stop  offset="0" style="stop-color:#FFAB00"/>
			<stop  offset="1" style="stop-color:#FFC900"/>
		</linearGradient>
		<polygon style="fill:url(#SVGID_00000016796453621067898850000001699923387034045327_);" points="929.7,447.4 922.1,450.2 
			922.1,497.6 929.7,497.6 		"/>
		
			<linearGradient id="SVGID_00000140726947793161881860000004880970915543896749_" gradientUnits="userSpaceOnUse" x1="688.6" y1="455.7" x2="894.2" y2="455.7" gradientTransform="matrix(1 0 0 -1 0 1000)">
			<stop  offset="0" style="stop-color:#FFAB00"/>
			<stop  offset="1" style="stop-color:#FFC900"/>
		</linearGradient>
		<path style="fill:url(#SVGID_00000140726947793161881860000004880970915543896749_);" d="M782.6,607.9
			c61.8,0,111.6-24.2,111.6-34.9l-0.3-1.2h0.3v-91.1l-108.6,36.7c-0.9,0.3-2.1,0.6-3.1,0.6c-0.9,0-2.1-0.3-3.1-0.6l-53.8-18.3
			l-37,89C708.6,598.2,743.2,607.9,782.6,607.9z"/>
		
			<linearGradient id="SVGID_00000000180437725884795680000013755037671203236799_" gradientUnits="userSpaceOnUse" x1="732.1" y1="560.5625" x2="953.8" y2="560.5625" gradientTransform="matrix(1 0 0 -1 0 1000)">
			<stop  offset="0" style="stop-color:#FFAB00"/>
			<stop  offset="1" style="stop-color:#FFC900"/>
		</linearGradient>
		<path style="fill:url(#SVGID_00000000180437725884795680000013755037671203236799_);" d="M952.6,439.5l-174.9-60.2l-45.6,104.3
			l45.6,15.3c3.1,0.9,6.4,0.9,9.8,0l106.7-36.1l48.6-16.5l9.8-3.4l0,0C954.2,442.2,954.2,439.8,952.6,439.5z"/>
		
			<linearGradient id="SVGID_00000046303547116306800330000003327289084169918603_" gradientUnits="userSpaceOnUse" x1="916.9982" y1="482.6" x2="935.0267" y2="482.6" gradientTransform="matrix(1 0 0 -1 0 1000)">
			<stop  offset="0" style="stop-color:#FFAB00"/>
			<stop  offset="1" style="stop-color:#FFC900"/>
		</linearGradient>
		<path style="fill:url(#SVGID_00000046303547116306800330000003327289084169918603_);" d="M932.5,495.1h-12.8
			c-1.5,1.5-2.8,4-2.8,6.4v29c0,4.9,4,9.2,9.2,9.2c4.9,0,9.2-4,9.2-9.2v-29C934.9,498.8,934,496.6,932.5,495.1z"/>
	</g>
</g>
</svg>
